PathFileType	4	(x/y/z)	A01_PREF_T0015.trc
DataRate	CameraRate	NumFrames	NumMarkers	Units	OrigDataRate	OrigDataStartFrame	OrigNumFrames
240	240	4	48	mm	240	155	309
Frame#	Time	TOP_HEAD			R_AC			L_AC			R_ASIS			L_ASIS			R_PSIS			L_PSIS			SACRAL			L_IC			R_IC			L_GT			R_GT			R_LAT_KNEE			R_MED_KNEE			L_MED_KNEE			L_LAT_KNEE			R_TOE			L_TOE			R_1ST_MET			L_1ST_MET			L_5TH_MET			R_5TH_MET			R_LAT_ANK			R_MED_ANK			L_MED_ANK			L_LAT_ANK			L_HEEL_SUP			R_HEEL_SUP			L_HEEL_LAT			R_HEEL_LAT			L_HEEL_MED			R_HEEL_MED			R_LL_PROX_POST			R_LL_PROX_ANT			R_LL_DIST_ANT			R_LL_DIST_POST			R_THIGH_PROX_POST			R_THIGH_PROX_ANT			R_THIGH_DIST_ANT			R_THIGH_DIST_POST			L_PROS_PROX_ANT			L_PROS_PROX_POST			L_PROS_DIST_POST			L_PROS_DIST_ANT			L_THIGH_PROX_ANT			L_THIGH_PROX_POST			L_THIGH_DIST_POST			L_THIGH_DIST_ANT			
		X1	Y1	Z1	X2	Y2	Z2	X3	Y3	Z3	X4	Y4	Z4	X5	Y5	Z5	X6	Y6	Z6	X7	Y7	Z7	X8	Y8	Z8	X9	Y9	Z9	X10	Y10	Z10	X11	Y11	Z11	X12	Y12	Z12	X13	Y13	Z13	X14	Y14	Z14	X15	Y15	Z15	X16	Y16	Z16	X17	Y17	Z17	X18	Y18	Z18	X19	Y19	Z19	X20	Y20	Z20	X21	Y21	Z21	X22	Y22	Z22	X23	Y23	Z23	X24	Y24	Z24	X25	Y25	Z25	X26	Y26	Z26	X27	Y27	Z27	X28	Y28	Z28	X29	Y29	Z29	X30	Y30	Z30	X31	Y31	Z31	X32	Y32	Z32	X33	Y33	Z33	X34	Y34	Z34	X35	Y35	Z35	X36	Y36	Z36	X37	Y37	Z37	X38	Y38	Z38	X39	Y39	Z39	X40	Y40	Z40	X41	Y41	Z41	X42	Y42	Z42	X43	Y43	Z43	X44	Y44	Z44	X45	Y45	Z45	X46	Y46	Z46	X47	Y47	Z47	X48	Y48	Z48	

155	0.64375	131.65	1782.5	375.62	-28.883	1531.7	552	-39.663	1539.6	93.518	-25.359	1065	524.08	-40.862	1000.3	172.94	-244.79	1063.5	414.92	-241.27	1074.8	282.76	-261.44	1041.1	347.64	-62.054	1130.3	134.59	-64.165	1165.8	535.35	-121.52	930.66	137.38	-74.939	953.48	572.97	56.012	564.95	512.38	80.845	570.49	377.76	-200.32	536.85	364.74	-213.55	547.07	207.92	460.23	234.92	455.96	-242.58	71.463	274.96	408.73	170.19	404.6	-326.85	57.897	327.81	-355.14	51.674	201.69	383.34	144.95	534.16	248.7	131.16	501.8	259.01	146	400.42	-419.28	156.25	308.87	-451.12	158.61	241.12	-556.6	125.72	278.91	192.69	46.32	438.45	-552.79	94.99	248.15	211.63	30.983	474.6	-543.34	93.43	311.74	220.36	30.518	415.6	45.738	362.88	514.75	110.85	385.86	539.99	148.2	320.98	527.27	99.131	298.41	510.76	-67.221	805.33	554.29	-10.29	845.77	560.75	23.984	761.58	551.19	-32.693	723.53	542.68	-207.15	453.23	222.65	-256.99	476.17	210.29	-289.14	422.52	219.62	-237.83	406.8	229.73	-93.296	779.77	177.19	-159.65	801.7	161.14	-166.28	726.54	173.87	-106.09	707.42	188.33
156	0.64793	137.33	1781.4	376.56	-22.604	1530.1	553.04	-33.789	1538.8	94.66	-18.689	1063.8	524.25	-35.216	999.1	173.05	-238.49	1062.3	415.8	-235.21	1073.7	283.63	-255.27	1039.9	348.53	-56.497	1129.4	134.96	-57.583	1164.3	535.96	-116.14	929.63	137.64	-68.082	952.32	573.24	63.462	564.12	512.39	87.732	569.72	377.86	-196.07	535.9	364.68	-209.22	546.22	207.89	466.67	233.62	453.8	-242.2	71.156	274.93	414.8	168.85	402.91	-326.47	58.069	327.8	-354.82	51.951	201.67	390.2	143.87	532.65	255.47	130.23	501.19	265.17	144.87	399.69	-418.15	157.03	308.82	-449.96	159.68	241.11	-555.73	127.48	278.91	198.75	45.703	438.32	-552.15	96.729	248.18	217.89	30.377	474.4	-542.69	95.119	311.74	226.21	29.701	415.34	52.949	362.09	515.02	118.28	384.97	539.8	155.44	320.03	526.97	106.26	297.54	510.76	-60.121	804.34	554.6	-3.2774	844.92	560.9	31.142	760.82	551.22	-25.412	722.63	542.89	-203.59	452.32	222.62	-253.25	475.67	210.26	-285.84	422.27	219.59	-234.65	406.14	229.69	-88.359	778.62	177.26	-154.66	800.77	161.28	-161.58	725.6	173.98	-101.37	706.29	188.31
157	0.65211	143.04	1780.4	377.48	-16.319	1528.5	554.11	-27.891	1538	95.826	-11.998	1062.6	524.44	-29.491	997.85	173.18	-232.16	1061.1	416.64	-229.1	1072.6	284.48	-249.05	1038.8	349.39	-50.864	1128.6	135.34	-51.007	1162.7	536.59	-110.68	928.58	137.91	-61.169	951.22	573.52	71.032	563.35	512.38	94.807	569.01	377.98	-191.71	534.93	364.62	-204.78	545.34	207.87	472.85	231.73	451.58	-241.81	70.836	274.9	420.47	167.04	401.18	-326.07	58.257	327.79	-354.47	52.253	201.65	396.61	142.42	531.12	261.83	129.18	500.57	270.92	143.58	398.93	-416.95	157.85	308.76	-448.74	160.81	241.11	-554.8	129.34	278.9	204.22	45.117	438.19	-551.47	98.565	248.21	223.51	29.786	474.22	-541.99	96.902	311.74	231.41	28.844	415.1	60.082	361.39	515.27	125.65	384.09	539.58	162.54	319.04	526.64	113.22	296.7	510.75	-52.91	803.4	554.92	3.8373	844.15	561.04	38.427	760.14	551.25	-17.983	721.78	543.11	-199.93	451.4	222.59	-249.41	475.16	210.22	-282.44	422.03	219.57	-231.38	405.48	229.65	-83.334	777.46	177.34	-149.58	799.82	161.44	-156.8	724.64	174.11	-96.555	705.16	188.31
158	0.65629	148.76	1779.4	378.39	-10.03	1526.9	555.19	-21.97	1537.2	97.015	-5.2855	1061.6	524.65	-23.683	996.58	173.34	-225.8	1059.9	417.46	-222.95	1071.5	285.29	-242.77	1037.6	350.24	-45.153	1127.7	135.74	-44.436	1161.2	537.23	-105.12	927.5	138.21	-54.203	950.16	573.83	78.708	562.62	512.37	102.05	568.34	378.14	-187.22	533.94	364.56	-200.21	544.44	207.85	478.79	229.3	449.32	-241.39	70.502	274.86	425.78	164.78	399.45	-325.65	58.463	327.78	-354.11	52.582	201.63	402.61	140.63	529.57	267.79	128.02	499.94	276.29	142.13	398.17	-415.7	158.73	308.7	-447.46	162.01	241.1	-553.81	131.3	278.91	209.12	44.584	438.07	-550.73	100.51	248.24	228.51	29.228	474.05	-541.24	98.787	311.75	235.98	27.968	414.87	67.138	360.79	515.52	132.96	383.22	539.34	169.51	318.03	526.28	120.02	295.88	510.73	-45.599	802.5	555.24	11.047	843.44	561.18	45.827	759.54	551.26	-10.422	720.99	543.32	-196.17	450.47	222.56	-245.45	474.65	210.19	-278.92	421.79	219.55	-228.01	404.83	229.62	-78.216	776.29	177.44	-144.41	798.86	161.6	-151.91	723.66	174.26	-91.639	704.01	188.32
